<svg xmlns="http://www.w3.org/2000/svg" version="1.1" xmlns:xlink="http://www.w3.org/1999/xlink" xmlns:svgjs="http://svgjs.com/svgjs" width="1440" height="560" preserveAspectRatio="none" viewBox="0 0 1440 560"><g mask="url(&quot;#SvgjsMask1929&quot;)" fill="none"><rect width="1440" height="560" x="0" y="0" fill="#0e2a47"></rect><path d="M29.35 44.39L56.2 59.89L56.2 90.89L29.35 106.39L2.5 90.89L2.5 59.89zM2.5 90.89L29.35 106.39L29.35 137.39L2.5 152.89L-24.35 137.39L-24.35 106.39zM2.5 276.89L29.35 292.39L29.35 323.39L2.5 338.89L-24.35 323.39L-24.35 292.39zM29.35 323.39L56.2 338.89L56.2 369.89L29.35 385.39L2.5 369.89L2.5 338.89zM29.35 416.39L56.2 431.89L56.2 462.89L29.35 478.39L2.5 462.89L2.5 431.89zM29.35 509.39L56.2 524.89L56.2 555.89L29.35 571.39L2.5 555.89L2.5 524.89zM2.5 555.89L29.35 571.39L29.35 602.39L2.5 617.89L-24.35 602.39L-24.35 571.39zM56.2 90.89L83.04 106.39L83.04 137.39L56.2 152.89L29.35 137.39L29.35 106.39zM56.2 276.89L83.04 292.39L83.04 323.39L56.2 338.89L29.35 323.39L29.35 292.39zM56.2 369.89L83.04 385.39L83.04 416.39L56.2 431.89L29.35 416.39L29.35 385.39zM56.2 462.89L83.04 478.39L83.04 509.39L56.2 524.89L29.35 509.39L29.35 478.39zM56.2 555.89L83.04 571.39L83.04 602.39L56.2 617.89L29.35 602.39L29.35 571.39zM109.89 183.89L136.74 199.39L136.74 230.39L109.89 245.89L83.04 230.39L83.04 199.39zM136.74 416.39L163.59 431.89L163.59 462.89L136.74 478.39L109.89 462.89L109.89 431.89zM136.74 509.39L163.59 524.89L163.59 555.89L136.74 571.39L109.89 555.89L109.89 524.89zM190.43 137.39L217.28 152.89L217.28 183.89L190.43 199.39L163.59 183.89L163.59 152.89zM190.43 416.39L217.28 431.89L217.28 462.89L190.43 478.39L163.59 462.89L163.59 431.89zM244.13 44.39L270.98 59.89L270.98 90.89L244.13 106.39L217.28 90.89L217.28 59.89zM244.13 137.39L270.98 152.89L270.98 183.89L244.13 199.39L217.28 183.89L217.28 152.89zM217.28 276.89L244.13 292.39L244.13 323.39L217.28 338.89L190.43 323.39L190.43 292.39zM244.13 509.39L270.98 524.89L270.98 555.89L244.13 571.39L217.28 555.89L217.28 524.89zM270.98 183.89L297.82 199.39L297.82 230.39L270.98 245.89L244.13 230.39L244.13 199.39zM297.82 323.39L324.67 338.89L324.67 369.89L297.82 385.39L270.98 369.89L270.98 338.89zM270.98 555.89L297.82 571.39L297.82 602.39L270.98 617.89L244.13 602.39L244.13 571.39zM351.52 44.39L378.37 59.89L378.37 90.89L351.52 106.39L324.67 90.89L324.67 59.89zM324.67 90.89L351.52 106.39L351.52 137.39L324.67 152.89L297.82 137.39L297.82 106.39zM324.67 183.89L351.52 199.39L351.52 230.39L324.67 245.89L297.82 230.39L297.82 199.39zM351.52 323.39L378.37 338.89L378.37 369.89L351.52 385.39L324.67 369.89L324.67 338.89zM351.52 416.39L378.37 431.89L378.37 462.89L351.52 478.39L324.67 462.89L324.67 431.89zM351.52 509.39L378.37 524.89L378.37 555.89L351.52 571.39L324.67 555.89L324.67 524.89zM324.67 555.89L351.52 571.39L351.52 602.39L324.67 617.89L297.82 602.39L297.82 571.39zM405.21 230.39L432.06 245.89L432.06 276.89L405.21 292.39L378.37 276.89L378.37 245.89zM405.21 323.39L432.06 338.89L432.06 369.89L405.21 385.39L378.37 369.89L378.37 338.89zM458.91 137.39L485.76 152.89L485.76 183.89L458.91 199.39L432.06 183.89L432.06 152.89zM458.91 416.39L485.76 431.89L485.76 462.89L458.91 478.39L432.06 462.89L432.06 431.89zM512.6 137.39L539.45 152.89L539.45 183.89L512.6 199.39L485.76 183.89L485.76 152.89zM485.76 276.89L512.6 292.39L512.6 323.39L485.76 338.89L458.91 323.39L458.91 292.39zM512.6 323.39L539.45 338.89L539.45 369.89L512.6 385.39L485.76 369.89L485.76 338.89zM485.76 462.89L512.6 478.39L512.6 509.39L485.76 524.89L458.91 509.39L458.91 478.39zM485.76 555.89L512.6 571.39L512.6 602.39L485.76 617.89L458.91 602.39L458.91 571.39zM539.45 90.89L566.3 106.39L566.3 137.39L539.45 152.89L512.6 137.39L512.6 106.39zM566.3 137.39L593.15 152.89L593.15 183.89L566.3 199.39L539.45 183.89L539.45 152.89zM566.3 230.39L593.15 245.89L593.15 276.89L566.3 292.39L539.45 276.89L539.45 245.89zM539.45 276.89L566.3 292.39L566.3 323.39L539.45 338.89L512.6 323.39L512.6 292.39zM539.45 369.89L566.3 385.39L566.3 416.39L539.45 431.89L512.6 416.39L512.6 385.39zM539.45 555.89L566.3 571.39L566.3 602.39L539.45 617.89L512.6 602.39L512.6 571.39zM593.15 90.89L619.99 106.39L619.99 137.39L593.15 152.89L566.3 137.39L566.3 106.39zM619.99 230.39L646.84 245.89L646.84 276.89L619.99 292.39L593.15 276.89L593.15 245.89zM593.15 555.89L619.99 571.39L619.99 602.39L593.15 617.89L566.3 602.39L566.3 571.39zM646.84 90.89L673.69 106.39L673.69 137.39L646.84 152.89L619.99 137.39L619.99 106.39zM646.84 369.89L673.69 385.39L673.69 416.39L646.84 431.89L619.99 416.39L619.99 385.39zM673.69 509.39L700.54 524.89L700.54 555.89L673.69 571.39L646.84 555.89L646.84 524.89zM727.38 230.39L754.23 245.89L754.23 276.89L727.38 292.39L700.54 276.89L700.54 245.89zM700.54 276.89L727.38 292.39L727.38 323.39L700.54 338.89L673.69 323.39L673.69 292.39zM727.38 323.39L754.23 338.89L754.23 369.89L727.38 385.39L700.54 369.89L700.54 338.89zM727.38 416.39L754.23 431.89L754.23 462.89L727.38 478.39L700.54 462.89L700.54 431.89zM727.38 509.39L754.23 524.89L754.23 555.89L727.38 571.39L700.54 555.89L700.54 524.89zM781.08 44.39L807.93 59.89L807.93 90.89L781.08 106.39L754.23 90.89L754.23 59.89zM781.08 230.39L807.93 245.89L807.93 276.89L781.08 292.39L754.23 276.89L754.23 245.89zM781.08 323.39L807.93 338.89L807.93 369.89L781.08 385.39L754.23 369.89L754.23 338.89zM754.23 369.89L781.08 385.39L781.08 416.39L754.23 431.89L727.38 416.39L727.38 385.39zM754.23 462.89L781.08 478.39L781.08 509.39L754.23 524.89L727.38 509.39L727.38 478.39zM781.08 509.39L807.93 524.89L807.93 555.89L781.08 571.39L754.23 555.89L754.23 524.89zM807.93 90.89L834.77 106.39L834.77 137.39L807.93 152.89L781.08 137.39L781.08 106.39zM807.93 183.89L834.77 199.39L834.77 230.39L807.93 245.89L781.08 230.39L781.08 199.39zM807.93 369.89L834.77 385.39L834.77 416.39L807.93 431.89L781.08 416.39L781.08 385.39zM807.93 462.89L834.77 478.39L834.77 509.39L807.93 524.89L781.08 509.39L781.08 478.39zM834.77 509.39L861.62 524.89L861.62 555.89L834.77 571.39L807.93 555.89L807.93 524.89zM888.47 44.39L915.32 59.89L915.32 90.89L888.47 106.39L861.62 90.89L861.62 59.89zM888.47 509.39L915.32 524.89L915.32 555.89L888.47 571.39L861.62 555.89L861.62 524.89zM861.62 555.89L888.47 571.39L888.47 602.39L861.62 617.89L834.77 602.39L834.77 571.39zM915.32 90.89L942.16 106.39L942.16 137.39L915.32 152.89L888.47 137.39L888.47 106.39zM942.16 137.39L969.01 152.89L969.01 183.89L942.16 199.39L915.32 183.89L915.32 152.89zM915.32 183.89L942.16 199.39L942.16 230.39L915.32 245.89L888.47 230.39L888.47 199.39zM942.16 416.39L969.01 431.89L969.01 462.89L942.16 478.39L915.32 462.89L915.32 431.89zM969.01 90.89L995.86 106.39L995.86 137.39L969.01 152.89L942.16 137.39L942.16 106.39zM969.01 462.89L995.86 478.39L995.86 509.39L969.01 524.89L942.16 509.39L942.16 478.39zM969.01 555.89L995.86 571.39L995.86 602.39L969.01 617.89L942.16 602.39L942.16 571.39zM1049.55 44.39L1076.4 59.89L1076.4 90.89L1049.55 106.39L1022.71 90.89L1022.71 59.89zM1022.71 90.89L1049.55 106.39L1049.55 137.39L1022.71 152.89L995.86 137.39L995.86 106.39zM1049.55 137.39L1076.4 152.89L1076.4 183.89L1049.55 199.39L1022.71 183.89L1022.71 152.89zM1022.71 276.89L1049.55 292.39L1049.55 323.39L1022.71 338.89L995.86 323.39L995.86 292.39zM1022.71 369.89L1049.55 385.39L1049.55 416.39L1022.71 431.89L995.86 416.39L995.86 385.39zM1049.55 416.39L1076.4 431.89L1076.4 462.89L1049.55 478.39L1022.71 462.89L1022.71 431.89zM1103.25 44.39L1130.1 59.89L1130.1 90.89L1103.25 106.39L1076.4 90.89L1076.4 59.89zM1076.4 90.89L1103.25 106.39L1103.25 137.39L1076.4 152.89L1049.55 137.39L1049.55 106.39zM1103.25 230.39L1130.1 245.89L1130.1 276.89L1103.25 292.39L1076.4 276.89L1076.4 245.89zM1076.4 276.89L1103.25 292.39L1103.25 323.39L1076.4 338.89L1049.55 323.39L1049.55 292.39zM1076.4 369.89L1103.25 385.39L1103.25 416.39L1076.4 431.89L1049.55 416.39L1049.55 385.39zM1076.4 555.89L1103.25 571.39L1103.25 602.39L1076.4 617.89L1049.55 602.39L1049.55 571.39zM1156.94 44.39L1183.79 59.89L1183.79 90.89L1156.94 106.39L1130.1 90.89L1130.1 59.89zM1130.1 90.89L1156.94 106.39L1156.94 137.39L1130.1 152.89L1103.25 137.39L1103.25 106.39zM1130.1 183.89L1156.94 199.39L1156.94 230.39L1130.1 245.89L1103.25 230.39L1103.25 199.39zM1183.79 -2.11L1210.64 13.39L1210.64 44.39L1183.79 59.89L1156.94 44.39L1156.94 13.39zM1183.79 183.89L1210.64 199.39L1210.64 230.39L1183.79 245.89L1156.94 230.39L1156.94 199.39zM1183.79 462.89L1210.64 478.39L1210.64 509.39L1183.79 524.89L1156.94 509.39L1156.94 478.39zM1237.49 90.89L1264.33 106.39L1264.33 137.39L1237.49 152.89L1210.64 137.39L1210.64 106.39zM1264.33 137.39L1291.18 152.89L1291.18 183.89L1264.33 199.39L1237.49 183.89L1237.49 152.89zM1264.33 323.39L1291.18 338.89L1291.18 369.89L1264.33 385.39L1237.49 369.89L1237.49 338.89zM1264.33 416.39L1291.18 431.89L1291.18 462.89L1264.33 478.39L1237.49 462.89L1237.49 431.89zM1237.49 462.89L1264.33 478.39L1264.33 509.39L1237.49 524.89L1210.64 509.39L1210.64 478.39zM1237.49 555.89L1264.33 571.39L1264.33 602.39L1237.49 617.89L1210.64 602.39L1210.64 571.39zM1291.18 -2.11L1318.03 13.39L1318.03 44.39L1291.18 59.89L1264.33 44.39L1264.33 13.39zM1318.03 44.39L1344.88 59.89L1344.88 90.89L1318.03 106.39L1291.18 90.89L1291.18 59.89zM1291.18 183.89L1318.03 199.39L1318.03 230.39L1291.18 245.89L1264.33 230.39L1264.33 199.39zM1371.73 230.39L1398.57 245.89L1398.57 276.89L1371.73 292.39L1344.88 276.89L1344.88 245.89zM1371.73 323.39L1398.57 338.89L1398.57 369.89L1371.73 385.39L1344.88 369.89L1344.88 338.89zM1344.88 369.89L1371.73 385.39L1371.73 416.39L1344.88 431.89L1318.03 416.39L1318.03 385.39zM1398.57 90.89L1425.42 106.39L1425.42 137.39L1398.57 152.89L1371.73 137.39L1371.73 106.39zM1398.57 276.89L1425.42 292.39L1425.42 323.39L1398.57 338.89L1371.73 323.39L1371.73 292.39zM1425.42 416.39L1452.27 431.89L1452.27 462.89L1425.42 478.39L1398.57 462.89L1398.57 431.89z" stroke="rgba(2, 195, 154, 1)" stroke-width="2"></path></g><defs><mask id="SvgjsMask1929"><rect width="1440" height="560" fill="#ffffff"></rect></mask></defs></svg>