<svg xmlns="http://www.w3.org/2000/svg" version="1.1" xmlns:xlink="http://www.w3.org/1999/xlink" xmlns:svgjs="http://svgjs.com/svgjs" width="1440" height="560" preserveAspectRatio="none" viewBox="0 0 1440 560"><g mask="url(&quot;#SvgjsMask1001&quot;)" fill="none"><rect width="1440" height="560" x="0" y="0" fill="rgba(2, 195, 154, 1)"></rect><path d="M0,447.893C84.972,447.375,162.196,409.152,236.784,368.443C316.432,324.972,411.335,287.568,446.792,204.043C482.12,120.822,419.98,30.194,418.75,-60.207C417.266,-169.301,486.85,-282.286,438.844,-380.261C389.16,-481.661,279.489,-554.349,167.965,-572.035C59.607,-589.219,-38.978,-517.913,-138.54,-471.825C-224.108,-432.215,-303.63,-387.308,-371.807,-322.172C-445.914,-251.37,-548.957,-181.522,-549.67,-79.031C-550.393,24.79,-434.239,85.935,-375.241,171.367C-328.421,239.164,-304.976,322.464,-238.648,371.343C-170.005,421.928,-85.266,448.413,0,447.893" fill="#029c7b"></path><path d="M1440 877.222C1518.241 874.78 1594.142 941.642 1667.1970000000001 913.5260000000001 1741.882 884.783 1800.887 810.544 1816.952 732.148 1832.458 656.479 1769.6680000000001 589.961 1748.738 515.61 1731.243 453.462 1743.753 382.10900000000004 1704.078 331.175 1663.721 279.365 1596.819 259.016 1533.985 239.91500000000002 1470.639 220.659 1405.876 211.161 1340.345 220.60500000000002 1267.076 231.164 1179.604 236.861 1136.681 297.172 1093.594 357.714 1142.051 442.096 1130.472 515.497 1118.651 590.434 1055.228 654.978 1068.453 729.6800000000001 1082.683 810.062 1127.6309999999999 897.873 1203.5 928.001 1279.987 958.374 1357.743 879.79 1440 877.222" fill="#02eab9"></path></g><defs><mask id="SvgjsMask1001"><rect width="1440" height="560" fill="#ffffff"></rect></mask></defs></svg>