<svg xmlns="http://www.w3.org/2000/svg" version="1.1" xmlns:xlink="http://www.w3.org/1999/xlink" xmlns:svgjs="http://svgjs.com/svgjs" width="1500" height="560" preserveAspectRatio="none" viewBox="0 0 1500 560"><g mask="url(&quot;#SvgjsMask2200&quot;)" fill="none"><rect width="1500" height="560" x="0" y="0" fill="url(#SvgjsRadialGradient2201)"></rect><path d="M -40.04193084890801,241 C 19.96,252 139.96,310.2 259.958069151092,296 C 379.96,281.8 439.96,148.8 559.958069151092,170 C 679.96,191.2 739.96,403.6 859.958069151092,402 C 979.96,400.4 1039.96,162 1159.9580691510919,162 C 1279.96,162 1339.96,387.2 1459.9580691510919,402 C 1579.96,416.8 1751.95,243.2 1759.9580691510919,236 C 1767.97,228.8 1551.99,340 1500,366" stroke="rgba(2, 2, 2, 1)" stroke-width="2"></path><path d="M -248.3526090194052,311 C -188.35,286.2 -68.35,169 51.647390980594786,187 C 171.65,205 231.65,382.8 351.64739098059476,401 C 471.65,419.2 531.65,286 651.6473909805948,278 C 771.65,270 831.65,366.6 951.6473909805948,361 C 1071.65,355.4 1131.65,245.6 1251.6473909805948,250 C 1371.65,254.4 1501.98,404 1551.6473909805948,383 C 1601.32,362 1510.33,192.6 1500,145" stroke="rgba(2, 2, 2, 1)" stroke-width="2"></path><path d="M -408.78217964257874,414 C -348.78,366.2 -228.78,188.6 -108.78217964257877,175 C 11.22,161.4 71.22,335.2 191.21782035742123,346 C 311.22,356.8 371.22,230.8 491.21782035742126,229 C 611.22,227.2 671.22,342.6 791.2178203574213,337 C 911.22,331.4 971.22,187.4 1091.2178203574213,201 C 1211.22,214.6 1309.46,411.2 1391.2178203574213,405 C 1472.97,398.8 1478.24,217 1500,170" stroke="rgba(2, 2, 2, 1)" stroke-width="2"></path><path d="M -345.47183254286944,341 C -285.47,310 -165.47,178.8 -45.471832542869436,186 C 74.53,193.2 134.53,369.8 254.52816745713056,377 C 374.53,384.2 434.53,221.6 554.5281674571306,222 C 674.53,222.4 734.53,385.6 854.5281674571306,379 C 974.53,372.4 1034.53,190.4 1154.5281674571306,189 C 1274.53,187.6 1385.43,359 1454.5281674571306,372 C 1523.62,385 1490.91,277.6 1500,254" stroke="rgba(2, 2, 2, 1)" stroke-width="2"></path><path d="M -284.67814951705526,409 C -224.68,373.4 -104.68,245.6 15.321850482944722,231 C 135.32,216.4 195.32,332.6 315.32185048294474,336 C 435.32,339.4 495.32,253.6 615.3218504829447,248 C 735.32,242.4 795.32,305.2 915.3218504829447,308 C 1035.32,310.8 1095.32,262.8 1215.3218504829447,262 C 1335.32,261.2 1458.39,319 1515.3218504829447,304 C 1572.26,289 1503.06,210.4 1500,187" stroke="rgba(2, 2, 2, 1)" stroke-width="2"></path><path d="M -31.04671192862162,236 C 28.95,258 148.95,350.6 268.9532880713784,346 C 388.95,341.4 448.95,221.2 568.9532880713784,213 C 688.95,204.8 748.95,319 868.9532880713784,305 C 988.95,291 1048.95,140.2 1168.9532880713784,143 C 1288.95,145.8 1348.95,318.6 1468.9532880713784,319 C 1588.95,319.4 1762.74,142.4 1768.9532880713784,145 C 1775.16,147.6 1553.79,294.6 1500,332" stroke="rgba(2, 2, 2, 1)" stroke-width="2"></path><path d="M -439.8649412275046,258 C -379.86,280.2 -259.86,382.8 -139.86494122750454,369 C -19.86,355.2 40.14,202.4 160.13505877249546,189 C 280.14,175.6 340.14,299.8 460.1350587724954,302 C 580.14,304.2 640.14,180.2 760.1350587724954,200 C 880.14,219.8 940.14,394.2 1060.1350587724955,401 C 1180.14,407.8 1272.16,242 1360.1350587724955,234 C 1448.11,226 1472.03,335.6 1500,361" stroke="rgba(2, 2, 2, 1)" stroke-width="2"></path><path d="M -494.92805500995553,154 C -434.93,191.6 -314.93,339 -194.92805500995556,342 C -74.93,345 -14.93,180 105.07194499004444,169 C 225.07,158 285.07,286.2 405.07194499004447,287 C 525.07,287.8 585.07,164.8 705.0719449900445,173 C 825.07,181.2 885.07,331.8 1005.0719449900445,328 C 1125.07,324.2 1206.09,142.2 1305.0719449900444,154 C 1404.06,165.8 1461.01,340.4 1500,387" stroke="rgba(2, 2, 2, 1)" stroke-width="2"></path><path d="M -106.38012097700602,152 C -46.38,177.8 73.62,264 193.61987902299398,281 C 313.62,298 373.62,229.6 493.619879022994,237 C 613.62,244.4 673.62,321.6 793.6198790229939,318 C 913.62,314.4 973.62,206.2 1093.619879022994,219 C 1213.62,231.8 1273.62,392.2 1393.619879022994,382 C 1513.62,371.8 1672.34,172.6 1693.619879022994,168 C 1714.9,163.4 1538.72,320.8 1500,359" stroke="rgba(2, 2, 2, 1)" stroke-width="2"></path><path d="M -3.0395935177946853,328 C 56.96,310.4 176.96,232.4 296.9604064822053,240 C 416.96,247.6 476.96,382.6 596.9604064822054,366 C 716.96,349.4 776.96,147.6 896.9604064822054,157 C 1016.96,166.4 1076.96,401.4 1196.9604064822054,413 C 1316.96,424.6 1376.96,231 1496.9604064822054,215 C 1616.96,199 1796.35,332.4 1796.9604064822054,333 C 1797.57,333.6 1559.39,241 1500,218" stroke="rgba(2, 2, 2, 1)" stroke-width="2"></path></g><defs><mask id="SvgjsMask2200"><rect width="1500" height="560" fill="#ffffff"></rect></mask><radialGradient cx="50%" cy="50%" r="800.56" gradientUnits="userSpaceOnUse" id="SvgjsRadialGradient2201"><stop stop-color="#0e2a47" offset="0"></stop><stop stop-color="rgba(2, 195, 154, 0.998)" offset="1"></stop></radialGradient></defs></svg>