<svg xmlns="http://www.w3.org/2000/svg" version="1.1" xmlns:xlink="http://www.w3.org/1999/xlink" xmlns:svgjs="http://svgjs.com/svgjs" width="1440" height="560" preserveAspectRatio="none" viewBox="0 0 1440 560"><g mask="url(&quot;#SvgjsMask1009&quot;)" fill="none"><rect width="1440" height="560" x="0" y="0" fill="rgba(0, 0, 0, 1)"></rect><path d="M1669.64 510.35C1557.12 510.14 1447.35 440.35 1225.05 440.35 1002.76 440.35 1031.84 524.76 780.47 510.35 529.09 495.94 502.18 23.27 335.88-32.62" stroke="rgba(2, 195, 154, 1)" stroke-width="2"></path><path d="M1535.76 349.41C1371.82 350.83 1157.08 523.98 901.85 517.41 646.63 510.84 721.3 53.91 584.9-23.13" stroke="rgba(2, 195, 154, 1)" stroke-width="2"></path><path d="M1617.6 127.37C1454.36 130.84 1237 351.81 1004.11 351.37 771.22 350.93 811.36 19.8 697.37-17.51" stroke="rgba(2, 195, 154, 1)" stroke-width="2"></path><path d="M1694.57 90.25C1537.18 96.46 1340.07 354.02 1122.14 353.45 904.22 352.88 950.94-9.28 835.93-60.08" stroke="rgba(2, 195, 154, 1)" stroke-width="2"></path><path d="M1546.15 459.2C1389.87 453.71 1290.9 221.21 973.65 207.2 656.4 193.19 562.26-82.02 401.15-90.76" stroke="rgba(2, 195, 154, 1)" stroke-width="2"></path></g><defs><mask id="SvgjsMask1009"><rect width="1440" height="560" fill="#ffffff"></rect></mask></defs></svg>